<svg viewBox="-960 -468.5 1920 937" width="1920" height="937" style="background-color: rgb(255, 255, 255);" xmlns="http://www.w3.org/2000/svg"><path d="M-164.67330697626184,25.1716518451849L-176.77962765395566,21.9612802616945M-176.77962765395566,-178.60212500573945L-176.77962765395566,21.9612802616945M-176.77962765395566,21.9612802616945L-303.3683331793269,85.62580500929339M-164.67330697626184,-175.39175342224905L-164.67330697626184,25.1716518451849M-164.67330697626184,25.1716518451849L-291.2620125016331,88.83617659278379" style="fill:none;stroke:rgb(0,0,0);stroke-width:1;stroke-linecap:round"></path><path d="M-164.67330697626184,25.171651845184904L-176.77962765395563,21.961280261694498L-176.77962765395563,-178.60212500573945zM-303.36833317932695,85.62580500929337L-176.77962765395563,21.961280261694498L-164.67330697626184,25.171651845184904zM-164.67330697626184,-175.39175342224905L-164.67330697626184,25.171651845184904L-176.77962765395563,-178.60212500573945z" style="fill:rgb(238,238,238); fill-opacity: 0.34"></path><path d="M-58.94332877298921,41.72817945462432L-131.58124950782883,22.465950837087018M-131.58124950782883,-133.52780881536162L-131.58124950782883,22.465950837087018M-131.58124950782883,22.465950837087018L-230.0391315831176,71.98280341855283M-164.67330697626184,-175.39175342224905L-176.77962765395566,-178.60212500573945M-176.77962765395566,-178.60212500573945L-303.3683331793269,-114.93760025814059M-164.67330697626184,-175.39175342224905L-291.2620125016331,-111.72722867465019" style="fill:none;stroke:rgb(0,0,0);stroke-width:1;stroke-linecap:round"></path><path d="M-291.2620125016331,88.83617659278379L-164.67330697626184,25.171651845184904L-164.67330697626184,-175.39175342224905z" style="fill:rgb(238,238,238); fill-opacity: 0.34"></path><path d="M-227.7616805743842,4.529652950478274L-239.86800125207802,1.3192813669878656M-239.86800125207802,-18.774595672459306L-239.86800125207802,1.3192813669878656M-239.86800125207802,1.3192813669878656L-252.55056355709,7.697648997649607" style="fill:none;stroke:rgb(0,0,0);stroke-width:1;stroke-linecap:round"></path><path d="M-58.943328772989204,41.728179454624325L-131.58124950782883,22.465950837087018L-131.58124950782883,-133.52780881536162zM-176.77962765395563,-178.60212500573945L-176.77962765395563,21.961280261694498L-303.36833317932695,-114.93760025814062z" style="fill:rgb(238,238,238); fill-opacity: 0.34"></path><path d="M-227.76168057438417,4.529652950478282L-239.868001252078,1.3192813669878736L-239.868001252078,-18.774595672459302z" style="fill:rgb(153,221,255); fill-opacity: 0.37"></path><path d="M-227.7616805743842,-15.564224088968892L-239.86800125207802,-18.774595672459306M-239.86800125207802,-18.774595672459306L-252.55056355709,-12.39622804179756" style="fill:none;stroke:rgb(0,0,0);stroke-width:1;stroke-linecap:round"></path><path d="M-252.55056355709,7.697648997649607L-239.868001252078,1.3192813669878736L-227.76168057438417,4.529652950478282z" style="fill:rgb(153,221,255); fill-opacity: 0.37"></path><path d="M-227.7616805743842,-15.564224088968892L-227.7616805743842,4.529652950478274M-227.7616805743842,4.529652950478274L-240.44424287939614,10.908020581140015M-227.76167508790206,-15.564222534241798L-227.76167508790206,4.529652588903929M-227.76167508790206,4.529652588903929L-240.44423692045177,10.908019981952954M-227.76167508790206,4.529652588903929L-185.58208812299395,1.0772540604297203" style="fill:none;stroke:rgb(0,0,0);stroke-width:1;stroke-linecap:round"></path><path d="M-239.868001252078,-18.774595672459302L-239.868001252078,1.3192813669878736L-252.55056355709,-12.396228041797563zM-227.76168057438417,-15.564224088968892L-227.76168057438417,4.529652950478282L-239.868001252078,-18.774595672459302z" style="fill:rgb(153,221,255); fill-opacity: 0.37"></path><path d="M-291.2620125016331,88.83617659278379L-303.36833317932695,85.62580500929337L-164.67330697626184,25.171651845184904z" style="fill:rgb(238,238,238); fill-opacity: 0.34"></path><path d="M-239.868001252078,1.3192813669878736L-252.55056355709,7.697648997649607L-252.55056355709,-12.396228041797563z" style="fill:rgb(153,221,255); fill-opacity: 0.37"></path><path d="M-58.94332877298921,-114.26558019782432L-58.94332877298921,41.72817945462432M-58.94332877298921,41.72817945462432L-157.40121084827797,91.24503203609014M-227.7616805743842,-15.564224088968892L-240.44424287939614,-9.185856458307152M-227.76167508790206,-15.564222534241798L-240.44423692045177,-9.185855141192768M-227.76167508790206,-15.564222534241798L-185.58208812299395,1.0772540604297203" style="fill:none;stroke:rgb(0,0,0);stroke-width:1;stroke-linecap:round"></path><path d="M-227.76168059101727,-15.564224093379682L-227.76168059101727,4.529652946067493L-240.44424289602924,10.908020576729227z" style="fill:rgb(255,187,187); fill-opacity: 0.37"></path><path d="M-240.44424287939614,10.908020581140015L-227.76168057438417,4.529652950478282L-227.76168057438417,-15.564224088968892z" style="fill:rgb(153,221,255); fill-opacity: 0.37"></path><path d="M-252.55056355709,-12.39622804179756L-252.55056355709,7.697648997649607M-252.55056355709,7.697648997649607L-240.44424287939614,10.908020581140015" style="fill:none;stroke:rgb(0,0,0);stroke-width:1;stroke-linecap:round"></path><path d="M-240.44424287939614,10.908020581140015L-252.55056355709,7.697648997649607L-227.76168057438417,4.529652950478282zM-240.44424287939614,-9.185856458307155L-227.76168057438417,-15.564224088968892L-239.868001252078,-18.774595672459302zM-252.55056355709,-12.396228041797563L-240.44424287939614,-9.185856458307155L-239.868001252078,-18.774595672459302z" style="fill:rgb(153,221,255); fill-opacity: 0.37"></path><path d="M-230.0391315831176,71.98280341855283L-131.58124950782883,22.465950837087018L-58.943328772989204,41.728179454624325z" style="fill:rgb(238,238,238); fill-opacity: 0.34"></path><path d="M-252.55056355709,-12.39622804179756L-240.44424287939614,-9.185856458307152" style="fill:none;stroke:rgb(0,0,0);stroke-width:1;stroke-linecap:round"></path><path d="M-252.55056355709,-12.396228041797563L-252.55056355709,7.697648997649607L-240.44424287939614,-9.185856458307155z" style="fill:rgb(153,221,255); fill-opacity: 0.37"></path><path d="M-227.76168059101727,-15.564224093379682L-240.44424289602924,10.908020576729227L-240.44424289602924,-9.185856462717945z" style="fill:rgb(255,187,187); fill-opacity: 0.37"></path><path d="M-240.44424287939614,-9.185856458307155L-240.44424287939614,10.908020581140015L-227.76168057438417,-15.564224088968892zM-252.55056355709,7.697648997649607L-240.44424287939614,10.908020581140015L-240.44424287939614,-9.185856458307155z" style="fill:rgb(153,221,255); fill-opacity: 0.37"></path><path d="M-240.44424287939614,-9.185856458307152L-240.44424287939614,10.908020581140015M-240.44423692045177,10.908019981952954L-240.44423692045177,-9.185855141192768M-240.44423692045177,10.908019981952954L-185.58208812299395,1.0772540604297203" style="fill:none;stroke:rgb(0,0,0);stroke-width:1;stroke-linecap:round"></path><path d="M-227.76168059101727,4.529652946067493L-227.76168059101727,-15.564224093379682L-185.58209365751404,1.0772531781052361z" style="fill:rgb(255,187,187); fill-opacity: 0.37"></path><path d="M-58.94332877298921,-114.26558019782432L-131.58124950782883,-133.52780881536162M-131.58124950782883,-133.52780881536162L-230.0391315831176,-84.01095623389581" style="fill:none;stroke:rgb(0,0,0);stroke-width:1;stroke-linecap:round"></path><path d="M-240.44424289602924,10.908020576729227L-227.76168059101727,4.529652946067493L-185.58209365751404,1.0772531781052361z" style="fill:rgb(255,187,187); fill-opacity: 0.37"></path><path d="M-240.44423692045177,-9.185855141192768L-185.58208812299395,1.0772540604297203" style="fill:none;stroke:rgb(0,0,0);stroke-width:1;stroke-linecap:round"></path><path d="M-176.77962765395563,21.961280261694498L-303.36833317932695,85.62580500929337L-303.36833317932695,-114.93760025814062z" style="fill:rgb(238,238,238); fill-opacity: 0.34"></path><path d="M-227.76168059101727,-15.564224093379682L-240.44424289602924,-9.185856462717945L-185.58209365751404,1.0772531781052361z" style="fill:rgb(255,187,187); fill-opacity: 0.37"></path><path d="M-291.2620125016331,-111.72722867465019L-164.67330697626184,-175.39175342224905L-176.77962765395563,-178.60212500573945z" style="fill:rgb(238,238,238); fill-opacity: 0.34"></path><path d="M-240.44424289602924,-9.185856462717945L-240.44424289602924,10.908020576729227L-185.58209365751404,1.0772531781052361z" style="fill:rgb(255,187,187); fill-opacity: 0.37"></path><path d="M-58.943328772989204,-114.26558019782432L-58.943328772989204,41.728179454624325L-131.58124950782883,-133.52780881536162z" style="fill:rgb(238,238,238); fill-opacity: 0.34"></path><path d="M-82.64444956632269,-73.51133124687576L-155.28237030116233,-92.77355986441307M-155.28237030116233,-112.86743690386024L-155.28237030116233,-92.77355986441307M-155.28237030116233,-92.77355986441307L-167.9649326061743,-86.39519223375135" style="fill:none;stroke:rgb(0,0,0);stroke-width:1;stroke-linecap:round"></path><path d="M-131.58124950782883,-133.52780881536162L-131.58124950782883,22.465950837087018L-230.0391315831176,-84.01095623389581z" style="fill:rgb(238,238,238); fill-opacity: 0.34"></path><path d="M-82.64444956632269,-93.60520828632293L-155.28237030116233,-112.86743690386024M-155.28237030116233,-112.86743690386024L-167.9649326061743,-106.48906927319851" style="fill:none;stroke:rgb(0,0,0);stroke-width:1;stroke-linecap:round"></path><path d="M-155.2823703011623,-112.86743690386024L-155.2823703011623,-92.77355986441309L-167.96493260617427,-106.48906927319851zM-155.2823703011623,-92.77355986441309L-167.96493260617427,-86.39519223375135L-167.96493260617427,-106.48906927319851z" style="fill:rgb(153,221,255); fill-opacity: 0.37"></path><path d="M-303.3683331793269,-114.93760025814059L-303.3683331793269,85.62580500929339M-303.3683331793269,85.62580500929339L-291.2620125016331,88.83617659278379M-167.9649326061743,-106.48906927319851L-167.9649326061743,-86.39519223375135M-167.9649326061743,-86.39519223375135L-95.32701187133466,-67.13296361621403" style="fill:none;stroke:rgb(0,0,0);stroke-width:1;stroke-linecap:round"></path><path d="M-82.64444956632269,-73.51133124687577L-155.2823703011623,-92.77355986441309L-155.2823703011623,-112.86743690386024z" style="fill:rgb(153,221,255); fill-opacity: 0.37"></path><path d="M-291.2620125016331,-111.72722867465019L-291.2620125016331,88.83617659278379L-164.67330697626184,-175.39175342224905z" style="fill:rgb(238,238,238); fill-opacity: 0.34"></path><path d="M-167.96493260617427,-86.39519223375135L-155.2823703011623,-92.77355986441309L-82.64444956632269,-73.51133124687577z" style="fill:rgb(153,221,255); fill-opacity: 0.37"></path><path d="M-291.2620125016331,-111.72722867465019L-291.2620125016331,88.83617659278379M-167.9649326061743,-106.48906927319851L-95.32701187133466,-87.22684065566119" style="fill:none;stroke:rgb(0,0,0);stroke-width:1;stroke-linecap:round"></path><path d="M-131.58124950782883,22.465950837087018L-230.0391315831176,71.98280341855283L-230.0391315831176,-84.01095623389581z" style="fill:rgb(238,238,238); fill-opacity: 0.34"></path><path d="M58.892972506671285,61.495079283643314L-25.851270571523898,39.02247864091302M-25.851270571523898,-72.40163539655028L-25.851270571523898,39.02247864091302M-25.851270571523898,39.02247864091302L-96.17832919673017,74.39165905624573M-58.94332877298921,-114.26558019782432L-157.40121084827797,-64.74872761635851" style="fill:none;stroke:rgb(0,0,0);stroke-width:1;stroke-linecap:round"></path><path d="M-157.40121084827797,91.24503203609014L-58.943328772989204,41.728179454624325L-58.943328772989204,-114.26558019782432z" style="fill:rgb(238,238,238); fill-opacity: 0.34"></path><path d="M-167.96493260617427,-106.48906927319851L-95.32701187133466,-87.22684065566119L-155.2823703011623,-112.86743690386024z" style="fill:rgb(153,221,255); fill-opacity: 0.37"></path><path d="M-157.40121084827797,91.24503203609014L-230.0391315831176,71.98280341855283L-58.943328772989204,41.728179454624325z" style="fill:rgb(238,238,238); fill-opacity: 0.34"></path><path d="M-167.96493260617427,-106.48906927319851L-167.96493260617427,-86.39519223375135L-95.32701187133466,-87.22684065566119zM-82.64444956632269,-93.60520828632293L-82.64444956632269,-73.51133124687577L-155.2823703011623,-112.86743690386024z" style="fill:rgb(153,221,255); fill-opacity: 0.37"></path><path d="M55.10947877152058,40.77146991408586L-29.634764306674597,18.29886927135558M-29.634764306674597,-1.7950077680915864L-29.634764306674597,18.29886927135558M-29.634764306674597,18.29886927135558L-42.31732661168657,24.67723690201732" style="fill:none;stroke:rgb(0,0,0);stroke-width:1;stroke-linecap:round"></path><path d="M-303.36833317932695,-114.93760025814062L-291.2620125016331,-111.72722867465019L-176.77962765395563,-178.60212500573945z" style="fill:rgb(238,238,238); fill-opacity: 0.34"></path><path d="M-95.32701187133466,-67.13296361621403L-167.96493260617427,-86.39519223375135L-82.64444956632269,-73.51133124687577z" style="fill:rgb(153,221,255); fill-opacity: 0.37"></path><path d="M-230.0391315831176,-84.01095623389581L-230.0391315831176,71.98280341855283M-230.0391315831176,71.98280341855283L-157.40121084827797,91.24503203609014" style="fill:none;stroke:rgb(0,0,0);stroke-width:1;stroke-linecap:round"></path><path d="M-95.32701187133466,-87.22684065566119L-82.64444956632269,-93.60520828632293L-155.2823703011623,-112.86743690386024z" style="fill:rgb(153,221,255); fill-opacity: 0.37"></path><path d="M-303.36833317932695,85.62580500929337L-291.2620125016331,88.83617659278379L-291.2620125016331,-111.72722867465019z" style="fill:rgb(238,238,238); fill-opacity: 0.34"></path><path d="M55.10947877152058,20.6775928746387L-29.634764306674597,-1.7950077680915864M-29.634764306674597,-1.7950077680915864L-42.31732661168657,4.583359862570155M-82.64444956632269,-93.60520828632293L-82.64444956632269,-73.51133124687576M-82.64444956632269,-73.51133124687576L-95.32701187133466,-67.13296361621403M-82.64444612428066,-93.60520760674503L-82.64444612428068,-73.51133056729786M-82.64444612428068,-73.51133056729786L-95.32700842929263,-67.13296293663612M-82.64444612428068,-73.51133056729786L-47.310128604847904,-48.18985394206931" style="fill:none;stroke:rgb(0,0,0);stroke-width:1;stroke-linecap:round"></path><path d="M-167.96493260617427,-86.39519223375135L-95.32701187133466,-67.13296361621403L-95.32701187133466,-87.22684065566119zM-29.634764306674597,-1.795007768091583L-29.634764306674597,18.298869271355578L-42.31732661168656,4.583359862570157zM-29.634764306674597,18.298869271355578L-42.31732661168656,24.67723690201732L-42.31732661168656,4.583359862570157z" style="fill:rgb(153,221,255); fill-opacity: 0.37"></path><path d="M-157.40121084827797,-64.74872761635852L-58.943328772989204,-114.26558019782432L-131.58124950782883,-133.52780881536162z" style="fill:rgb(238,238,238); fill-opacity: 0.34"></path><path d="M-82.64444956632269,-93.60520828632293L-95.32701187133466,-87.22684065566119M-82.64444612428066,-93.60520760674503L-95.32700842929263,-87.22683997608328M-82.64444612428066,-93.60520760674503L-47.310128604847904,-48.18985394206931" style="fill:none;stroke:rgb(0,0,0);stroke-width:1;stroke-linecap:round"></path><path d="M-95.32701187133466,-67.13296361621403L-82.64444956632269,-73.51133124687577L-82.64444956632269,-93.60520828632293z" style="fill:rgb(153,221,255); fill-opacity: 0.37"></path><path d="M-82.64444800045952,-93.60520787108507L-82.64444800045953,-73.51133083163792L-95.32701030547148,-67.13296320097618z" style="fill:rgb(255,187,187); fill-opacity: 0.37"></path><path d="M-42.31732661168657,4.583359862570155L-42.31732661168657,24.67723690201732M-42.31732661168657,24.67723690201732L42.426916466508615,47.14983754474761" style="fill:none;stroke:rgb(0,0,0);stroke-width:1;stroke-linecap:round"></path><path d="M58.89297250667127,61.4950792836433L-25.851270571523898,39.02247864091302L-25.851270571523898,-72.40163539655028z" style="fill:rgb(238,238,238); fill-opacity: 0.34"></path><path d="M55.10947877152057,40.77146991408586L-29.634764306674597,18.298869271355578L-29.634764306674597,-1.795007768091583zM-95.32701187133466,-87.22684065566119L-95.32701187133466,-67.13296361621403L-82.64444956632269,-93.60520828632293z" style="fill:rgb(153,221,255); fill-opacity: 0.37"></path><path d="M-82.64444800045952,-93.60520787108507L-95.32701030547148,-67.13296320097618L-95.32701030547148,-87.22684024042334z" style="fill:rgb(255,187,187); fill-opacity: 0.37"></path><path d="M-42.31732661168657,4.583359862570155L42.426916466508615,27.05596050530044M-95.32701187133466,-87.22684065566119L-95.32701187133466,-67.13296361621403M-95.32700842929263,-67.13296293663612L-95.32700842929263,-87.22683997608328M-95.32700842929263,-67.13296293663612L-47.310128604847904,-48.18985394206931" style="fill:none;stroke:rgb(0,0,0);stroke-width:1;stroke-linecap:round"></path><path d="M-42.31732661168656,24.67723690201732L-29.634764306674597,18.298869271355578L55.10947877152057,40.77146991408586z" style="fill:rgb(153,221,255); fill-opacity: 0.37"></path><path d="M-82.64444800045953,-73.51133083163792L-82.64444800045952,-93.60520787108507L-47.3101298206656,-48.18985398184333zM-95.32701030547148,-67.13296320097618L-82.64444800045953,-73.51133083163792L-47.3101298206656,-48.18985398184333z" style="fill:rgb(255,187,187); fill-opacity: 0.37"></path><path d="M-303.36833317932695,-114.93760025814062L-303.36833317932695,85.62580500929337L-291.2620125016331,-111.72722867465019z" style="fill:rgb(238,238,238); fill-opacity: 0.34"></path><path d="M58.892972506671285,-49.92903475382L-25.851270571523898,-72.40163539655028M-25.851270571523898,-72.40163539655028L-96.17832919673017,-37.03245498121757M-95.32700842929263,-87.22683997608328L-47.310128604847904,-48.18985394206931" style="fill:none;stroke:rgb(0,0,0);stroke-width:1;stroke-linecap:round"></path><path d="M-82.64444800045952,-93.60520787108507L-95.32701030547148,-87.22684024042334L-47.3101298206656,-48.18985398184333z" style="fill:rgb(255,187,187); fill-opacity: 0.37"></path><path d="M-96.17832919673017,74.39165905624573L-25.851270571523898,39.02247864091302L58.89297250667127,61.4950792836433z" style="fill:rgb(238,238,238); fill-opacity: 0.34"></path><path d="M-95.32701030547148,-87.22684024042334L-95.32701030547148,-67.13296320097618L-47.3101298206656,-48.18985398184333z" style="fill:rgb(255,187,187); fill-opacity: 0.37"></path><path d="M-42.31732661168656,4.583359862570157L42.4269164665086,27.05596050530044L-29.634764306674597,-1.795007768091583z" style="fill:rgb(153,221,255); fill-opacity: 0.37"></path><path d="M-230.0391315831176,-84.01095623389581L-157.40121084827797,-64.74872761635852L-131.58124950782883,-133.52780881536162z" style="fill:rgb(238,238,238); fill-opacity: 0.34"></path><path d="M-42.31732661168656,4.583359862570157L-42.31732661168656,24.67723690201732L42.4269164665086,27.05596050530044zM55.10947877152057,20.6775928746387L55.10947877152057,40.77146991408586L-29.634764306674597,-1.795007768091583z" style="fill:rgb(153,221,255); fill-opacity: 0.37"></path><path d="M58.892972506671285,-49.92903475382L58.892972506671285,61.495079283643314M58.892972506671285,61.495079283643314L-11.434086118534983,96.86425969897601" style="fill:none;stroke:rgb(0,0,0);stroke-width:1;stroke-linecap:round"></path><path d="M-25.851270571523898,-72.40163539655028L-25.851270571523898,39.02247864091302L-96.17832919673017,-37.03245498121757z" style="fill:rgb(238,238,238); fill-opacity: 0.34"></path><path d="M42.4269164665086,47.149837544747605L-42.31732661168656,24.67723690201732L55.10947877152057,40.77146991408586zM42.4269164665086,27.05596050530044L55.10947877152057,20.6775928746387L-29.634764306674597,-1.795007768091583z" style="fill:rgb(153,221,255); fill-opacity: 0.37"></path><path d="M-157.40121084827797,-64.74872761635852L-157.40121084827797,91.24503203609014L-58.943328772989204,-114.26558019782432z" style="fill:rgb(238,238,238); fill-opacity: 0.34"></path><path d="M-303.3683331793269,-114.93760025814059L-291.2620125016331,-111.72722867465019" style="fill:none;stroke:rgb(0,0,0);stroke-width:1;stroke-linecap:round"></path><path d="M58.89297250667127,-49.92903475381999L58.89297250667127,61.4950792836433L-25.851270571523898,-72.40163539655028z" style="fill:rgb(238,238,238); fill-opacity: 0.34"></path><path d="M-157.40121084827797,-64.74872761635851L-157.40121084827797,91.24503203609014" style="fill:none;stroke:rgb(0,0,0);stroke-width:1;stroke-linecap:round"></path><path d="M-42.31732661168656,24.67723690201732L42.4269164665086,47.149837544747605L42.4269164665086,27.05596050530044z" style="fill:rgb(153,221,255); fill-opacity: 0.37"></path><path d="M55.10947877152058,20.6775928746387L55.10947877152058,40.77146991408586M55.10947877152058,40.77146991408586L42.426916466508615,47.14983754474761M55.109480634435,20.67759334813768L55.109480634435,40.77147134573557M55.109480634435,40.77147134573557L42.426918329423046,47.149838976397305M55.109480634435,40.77147134573557L85.91016503095736,42.24056019324034" style="fill:none;stroke:rgb(0,0,0);stroke-width:1;stroke-linecap:round"></path><path d="M-230.0391315831176,71.98280341855283L-157.40121084827797,91.24503203609014L-157.40121084827797,-64.74872761635852zM-25.851270571523898,39.02247864091302L-96.17832919673017,74.39165905624573L-96.17832919673017,-37.03245498121757zM-230.0391315831176,-84.01095623389581L-230.0391315831176,71.98280341855283L-157.40121084827797,-64.74872761635852z" style="fill:rgb(238,238,238); fill-opacity: 0.34"></path><path d="M55.10947877152058,20.6775928746387L42.426916466508615,27.05596050530044M55.109480634435,20.67759334813768L42.426918329423046,27.05596097879942M55.109480634435,20.67759334813768L85.91016503095736,42.24056019324034" style="fill:none;stroke:rgb(0,0,0);stroke-width:1;stroke-linecap:round"></path><path d="M42.4269164665086,47.149837544747605L55.10947877152057,40.77146991408586L55.10947877152057,20.6775928746387z" style="fill:rgb(153,221,255); fill-opacity: 0.37"></path><path d="M55.10947948791981,20.677593064614488L55.10947948791981,40.77147010406165L42.42691718290784,47.14983773472339z" style="fill:rgb(255,187,187); fill-opacity: 0.37"></path><path d="M-230.0391315831176,-84.01095623389581L-157.40121084827797,-64.74872761635851" style="fill:none;stroke:rgb(0,0,0);stroke-width:1;stroke-linecap:round"></path><path d="M42.4269164665086,27.05596050530044L42.4269164665086,47.149837544747605L55.10947877152057,20.6775928746387z" style="fill:rgb(153,221,255); fill-opacity: 0.37"></path><path d="M55.10947948791981,20.677593064614488L42.42691718290784,47.14983773472339L42.42691718290784,27.055960695276227z" style="fill:rgb(255,187,187); fill-opacity: 0.37"></path><path d="M42.426916466508615,27.05596050530044L42.426916466508615,47.14983754474761M42.426918329423046,47.149838976397305L42.426918329423046,27.05596097879942M42.426918329423046,47.149838976397305L85.91016503095736,42.24056019324034M-96.17832919673017,-37.03245498121757L-96.17832919673017,74.39165905624573M-96.17832919673017,74.39165905624573L-11.434086118534983,96.86425969897601" style="fill:none;stroke:rgb(0,0,0);stroke-width:1;stroke-linecap:round"></path><path d="M55.10947948791981,40.77147010406165L55.10947948791981,20.677593064614488L85.91016420967941,42.240559610324055z" style="fill:rgb(255,187,187); fill-opacity: 0.37"></path><path d="M42.426918329423046,27.05596097879942L85.91016503095736,42.24056019324034" style="fill:none;stroke:rgb(0,0,0);stroke-width:1;stroke-linecap:round"></path><path d="M42.42691718290784,47.14983773472339L55.10947948791981,40.77147010406165L85.91016420967941,42.240559610324055z" style="fill:rgb(255,187,187); fill-opacity: 0.37"></path><path d="M-11.434086118534996,96.86425969897601L-96.17832919673017,74.39165905624573L58.89297250667127,61.4950792836433z" style="fill:rgb(238,238,238); fill-opacity: 0.34"></path><path d="M58.892972506671285,-49.92903475382L-11.434086118534983,-14.559854338487286" style="fill:none;stroke:rgb(0,0,0);stroke-width:1;stroke-linecap:round"></path><path d="M55.10947948791981,20.677593064614488L42.42691718290784,27.055960695276227L85.91016420967941,42.240559610324055z" style="fill:rgb(255,187,187); fill-opacity: 0.37"></path><path d="M-11.434086118534996,96.86425969897601L58.89297250667127,61.4950792836433L58.89297250667127,-49.92903475381999z" style="fill:rgb(238,238,238); fill-opacity: 0.34"></path><path d="M42.42691718290784,27.055960695276227L42.42691718290784,47.14983773472339L85.91016420967941,42.240559610324055z" style="fill:rgb(255,187,187); fill-opacity: 0.37"></path><path d="M-11.434086118534996,-14.559854338487288L58.89297250667127,-49.92903475381999L-25.851270571523898,-72.40163539655028z" style="fill:rgb(238,238,238); fill-opacity: 0.34"></path><path d="M188.83559443075941,84.47235068733113L91.98502900920872,58.789378019407856M91.98502900920872,-8.065090403070128L91.98502900920872,58.789378019407856M91.98502900920872,58.789378019407856L49.788793834084956,80.01088626860749" style="fill:none;stroke:rgb(0,0,0);stroke-width:1;stroke-linecap:round"></path><path d="M-96.17832919673017,-37.03245498121757L-11.434086118534996,-14.559854338487288L-25.851270571523898,-72.40163539655028z" style="fill:rgb(238,238,238); fill-opacity: 0.34"></path><path d="M-96.17832919673017,-37.03245498121757L-11.434086118534983,-14.559854338487286" style="fill:none;stroke:rgb(0,0,0);stroke-width:1;stroke-linecap:round"></path><path d="M-96.17832919673017,-37.03245498121757L-96.17832919673017,74.39165905624573L-11.434086118534996,-14.559854338487288z" style="fill:rgb(238,238,238); fill-opacity: 0.34"></path><path d="M188.83559443075941,17.61788226485314L91.98502900920872,-8.065090403070128M91.98502900920872,-8.065090403070128L49.788793834084956,13.156417846129509" style="fill:none;stroke:rgb(0,0,0);stroke-width:1;stroke-linecap:round"></path><path d="M-96.17832919673017,74.39165905624573L-11.434086118534996,96.86425969897601L-11.434086118534996,-14.559854338487288zM188.83559443075941,84.47235068733113L91.98502900920872,58.789378019407856L91.98502900920872,-8.065090403070132zM-11.434086118534996,-14.559854338487288L-11.434086118534996,96.86425969897601L58.89297250667127,-49.92903475381999z" style="fill:rgb(238,238,238); fill-opacity: 0.34"></path><path d="M-11.434086118534983,-14.559854338487286L-11.434086118534983,96.86425969897601" style="fill:none;stroke:rgb(0,0,0);stroke-width:1;stroke-linecap:round"></path><path d="M91.98502900920872,-8.065090403070132L91.98502900920872,58.789378019407856L49.788793834084956,13.156417846129504zM49.788793834084956,80.01088626860749L91.98502900920872,58.789378019407856L188.83559443075941,84.47235068733113z" style="fill:rgb(238,238,238); fill-opacity: 0.34"></path><path d="M166.6855337428103,58.740641907531895L69.83496832125958,33.05766923960862M69.83496832125958,12.963792200161457L69.83496832125958,33.05766923960862M69.83496832125958,33.05766923960862L57.15240601624762,39.436036870270364" style="fill:none;stroke:rgb(0,0,0);stroke-width:1;stroke-linecap:round"></path><path d="M91.98502900920872,58.789378019407856L49.788793834084956,80.01088626860749L49.788793834084956,13.156417846129504z" style="fill:rgb(238,238,238); fill-opacity: 0.34"></path><path d="M166.6855337428103,38.64676486808472L69.83496832125958,12.963792200161457M69.83496832125958,12.963792200161457L57.15240601624762,19.342159830823196" style="fill:none;stroke:rgb(0,0,0);stroke-width:1;stroke-linecap:round"></path><path d="M69.8349683212596,12.963792200161459L69.8349683212596,33.05766923960863L57.15240601624764,19.3421598308232z" style="fill:rgb(153,221,255); fill-opacity: 0.37"></path><path d="M49.788793834084956,13.156417846129509L49.788793834084956,80.01088626860749M49.788793834084956,80.01088626860749L146.63935925563567,105.69385893653076" style="fill:none;stroke:rgb(0,0,0);stroke-width:1;stroke-linecap:round"></path><path d="M69.8349683212596,33.05766923960863L57.15240601624764,39.43603687027037L57.15240601624764,19.3421598308232z" style="fill:rgb(153,221,255); fill-opacity: 0.37"></path><path d="M57.15240601624762,19.342159830823196L57.15240601624762,39.436036870270364M57.15240601624762,39.436036870270364L154.0029714377983,65.11900953819362" style="fill:none;stroke:rgb(0,0,0);stroke-width:1;stroke-linecap:round"></path><path d="M188.83559443075941,17.617882264853137L188.83559443075941,84.47235068733113L91.98502900920872,-8.065090403070132z" style="fill:rgb(238,238,238); fill-opacity: 0.34"></path><path d="M188.83559443075941,17.61788226485314L188.83559443075941,84.47235068733113M188.83559443075941,84.47235068733113L146.63935925563567,105.69385893653076M57.15240601624762,19.342159830823196L154.0029714377983,45.025132498746466" style="fill:none;stroke:rgb(0,0,0);stroke-width:1;stroke-linecap:round"></path><path d="M166.6855337428103,58.740641907531895L69.8349683212596,33.05766923960863L69.8349683212596,12.963792200161459zM57.15240601624764,39.43603687027037L69.8349683212596,33.05766923960863L166.6855337428103,58.740641907531895z" style="fill:rgb(153,221,255); fill-opacity: 0.37"></path><path d="M146.63935925563567,105.69385893653076L49.788793834084956,80.01088626860749L188.83559443075941,84.47235068733113z" style="fill:rgb(238,238,238); fill-opacity: 0.34"></path><path d="M49.788793834084956,13.156417846129509L146.63935925563567,38.83939051405278" style="fill:none;stroke:rgb(0,0,0);stroke-width:1;stroke-linecap:round"></path><path d="M57.15240601624764,19.3421598308232L154.00297143779832,45.02513249874647L69.8349683212596,12.963792200161459z" style="fill:rgb(153,221,255); fill-opacity: 0.37"></path><path d="M49.788793834084956,13.156417846129504L146.63935925563567,38.83939051405277L91.98502900920872,-8.065090403070132z" style="fill:rgb(238,238,238); fill-opacity: 0.34"></path><path d="M57.15240601624764,19.3421598308232L57.15240601624764,39.43603687027037L154.00297143779832,45.02513249874647z" style="fill:rgb(153,221,255); fill-opacity: 0.37"></path><path d="M146.63935925563567,38.83939051405277L188.83559443075941,17.617882264853137L91.98502900920872,-8.065090403070132z" style="fill:rgb(238,238,238); fill-opacity: 0.34"></path><path d="M188.83559443075941,17.61788226485314L146.63935925563567,38.83939051405278" style="fill:none;stroke:rgb(0,0,0);stroke-width:1;stroke-linecap:round"></path><path d="M166.6855337428103,38.64676486808473L166.6855337428103,58.740641907531895L69.8349683212596,12.963792200161459z" style="fill:rgb(153,221,255); fill-opacity: 0.37"></path><path d="M146.63935925563567,105.69385893653076L188.83559443075941,84.47235068733113L188.83559443075941,17.617882264853137zM49.788793834084956,13.156417846129504L49.788793834084956,80.01088626860749L146.63935925563567,38.83939051405277z" style="fill:rgb(238,238,238); fill-opacity: 0.34"></path><path d="M154.00297143779832,65.11900953819362L57.15240601624764,39.43603687027037L166.6855337428103,58.740641907531895zM154.00297143779832,45.02513249874647L166.6855337428103,38.64676486808473L69.8349683212596,12.963792200161459zM57.15240601624764,39.43603687027037L154.00297143779832,65.11900953819362L154.00297143779832,45.02513249874647z" style="fill:rgb(153,221,255); fill-opacity: 0.37"></path><path d="M49.788793834084956,80.01088626860749L146.63935925563567,105.69385893653076L146.63935925563567,38.83939051405277z" style="fill:rgb(238,238,238); fill-opacity: 0.34"></path><path d="M166.6855337428103,38.64676486808472L166.6855337428103,58.740641907531895M166.6855337428103,58.740641907531895L154.0029714377983,65.11900953819362M166.68553478921464,38.64676561085522L166.68553478921464,58.74064217122702M166.68553478921464,58.74064217122702L154.00297301336042,65.11900953576253M166.68553478921464,58.74064217122702L212.43052416600884,70.90349134497058M166.6855337428103,38.64676486808472L154.0029714377983,45.025132498746466M166.68553478921464,38.64676561085522L154.00297301336042,45.025132975390726M166.68553478921464,38.64676561085522L212.43052416600884,70.90349134497058" style="fill:none;stroke:rgb(0,0,0);stroke-width:1;stroke-linecap:round"></path><path d="M166.68553360974562,38.64676483279844L166.68553360974562,58.740641872245604L154.00297130473365,65.11900950290735z" style="fill:rgb(255,187,187); fill-opacity: 0.37"></path><path d="M154.00297143779832,65.11900953819362L166.6855337428103,58.740641907531895L166.6855337428103,38.64676486808473z" style="fill:rgb(153,221,255); fill-opacity: 0.37"></path><path d="M146.63935925563567,38.83939051405277L146.63935925563567,105.69385893653076L188.83559443075941,17.617882264853137z" style="fill:rgb(238,238,238); fill-opacity: 0.34"></path><path d="M146.63935925563567,38.83939051405278L146.63935925563567,105.69385893653076" style="fill:none;stroke:rgb(0,0,0);stroke-width:1;stroke-linecap:round"></path><path d="M166.68553360974562,58.740641872245604L166.68553360974562,38.64676483279844L212.43053627007924,70.90349473838926z" style="fill:rgb(255,187,187); fill-opacity: 0.37"></path><path d="M330.88453699927516,110.6599936656878L221.92764923436897,81.76664897257153M221.92764923436897,59.48182616507887L221.92764923436897,81.76664897257153M221.92764923436897,81.76664897257153L207.8622375093277,88.84048505563808" style="fill:none;stroke:rgb(0,0,0);stroke-width:1;stroke-linecap:round"></path><path d="M166.68553360974562,38.64676483279844L154.00297130473365,65.11900950290735L154.00297130473365,45.02513246346018z" style="fill:rgb(255,187,187); fill-opacity: 0.37"></path><path d="M154.00297143779832,45.02513249874647L154.00297143779832,65.11900953819362L166.6855337428103,38.64676486808473z" style="fill:rgb(153,221,255); fill-opacity: 0.37"></path><path d="M154.0029714377983,45.025132498746466L154.0029714377983,65.11900953819362M154.00297301336042,65.11900953576253L154.00297301336042,45.025132975390726M154.00297301336042,65.11900953576253L212.43052416600884,70.90349134497058" style="fill:none;stroke:rgb(0,0,0);stroke-width:1;stroke-linecap:round"></path><path d="M154.00297130473365,65.11900950290735L166.68553360974562,58.740641872245604L212.43053627007924,70.90349473838926zM166.68553360974562,38.64676483279844L154.00297130473365,45.02513246346018L212.43053627007924,70.90349473838926z" style="fill:rgb(255,187,187); fill-opacity: 0.37"></path><path d="M154.00297301336042,45.025132975390726L212.43052416600884,70.90349134497058M330.88453699927516,88.37517085819513L221.92764923436897,59.48182616507887M221.92764923436897,59.48182616507887L207.8622375093277,66.55566224814542" style="fill:none;stroke:rgb(0,0,0);stroke-width:1;stroke-linecap:round"></path><path d="M154.00297130473365,45.02513246346018L154.00297130473365,65.11900950290735L212.43053627007924,70.90349473838926z" style="fill:rgb(255,187,187); fill-opacity: 0.37"></path><path d="M221.927649234369,59.48182616507887L221.927649234369,81.76664897257153L207.86223750932777,66.55566224814542zM221.927649234369,81.76664897257153L207.86223750932777,88.84048505563808L207.86223750932777,66.55566224814542z" style="fill:rgb(238,238,238); fill-opacity: 0.34"></path><path d="M207.8622375093277,66.55566224814542L207.8622375093277,88.84048505563808M207.8622375093277,88.84048505563808L316.8191252742339,117.73382974875432M207.8622375093277,66.55566224814542L316.8191252742339,95.44900694126167" style="fill:none;stroke:rgb(0,0,0);stroke-width:1;stroke-linecap:round"></path><path d="M330.8845369992752,110.65999366568778L221.927649234369,81.76664897257153L221.927649234369,59.48182616507887zM207.86223750932777,88.84048505563808L221.927649234369,81.76664897257153L330.8845369992752,110.65999366568778zM207.86223750932777,66.55566224814542L316.81912527423395,95.44900694126166L221.927649234369,59.48182616507887zM207.86223750932777,66.55566224814542L207.86223750932777,88.84048505563808L316.81912527423395,95.44900694126166zM330.8845369992752,88.37517085819512L330.8845369992752,110.65999366568778L221.927649234369,59.48182616507887zM316.81912527423395,117.73382974875432L207.86223750932777,88.84048505563808L330.8845369992752,110.65999366568778zM316.81912527423395,95.44900694126166L330.8845369992752,88.37517085819512L221.927649234369,59.48182616507887zM207.86223750932777,88.84048505563808L316.81912527423395,117.73382974875432L316.81912527423395,95.44900694126166z" style="fill:rgb(238,238,238); fill-opacity: 0.34"></path><path d="M330.88453699927516,88.37517085819513L330.88453699927516,110.6599936656878M330.88453699927516,110.6599936656878L316.8191252742339,117.73382974875432M330.88453699927516,88.37517085819513L316.8191252742339,95.44900694126167" style="fill:none;stroke:rgb(0,0,0);stroke-width:1;stroke-linecap:round"></path><path d="M316.81912527423395,117.73382974875432L330.8845369992752,110.65999366568778L330.8845369992752,88.37517085819512zM316.81912527423395,95.44900694126166L316.81912527423395,117.73382974875432L330.8845369992752,88.37517085819512z" style="fill:rgb(238,238,238); fill-opacity: 0.34"></path><path d="M316.8191252742339,95.44900694126167L316.8191252742339,117.73382974875432" style="fill:none;stroke:rgb(0,0,0);stroke-width:1;stroke-linecap:round"></path></svg>