<svg viewBox="-960 -468.5 1920 937" width="1920" height="937" style="background-color: rgb(255, 255, 255);" xmlns="http://www.w3.org/2000/svg"><path d="M237.58050301214044,-185.46293407873952L237.58050301214044,23.647105022242524M237.58050301214044,23.647105022242524L226.0488415955677,25.941433849171595M237.58050301214044,23.647105022242524L374.8446064460521,63.61539345065849M226.0488415955677,-183.16860525181045L226.0488415955677,25.941433849171595M226.0488415955677,25.941433849171595L363.31294502947935,65.90972227758756" style="fill:none;stroke:rgb(0,0,0);stroke-width:1;stroke-linecap:round"></path><path d="M237.58050301214047,23.647105022242528L226.04884159556767,25.9414338491716L226.04884159556767,-183.16860525181042zM237.58050301214047,-185.4629340787395L237.58050301214047,23.647105022242528L226.04884159556767,-183.16860525181042z" style="fill:rgb(238,238,238); fill-opacity: 0.34"></path><path d="M237.58050301214044,-185.46293407873952L226.0488415955677,-183.16860525181045M237.58050301214044,-185.46293407873952L374.8446064460521,-145.49464565032355" style="fill:none;stroke:rgb(0,0,0);stroke-width:1;stroke-linecap:round"></path><path d="M363.3129450294793,65.90972227758756L226.04884159556767,25.9414338491716L237.58050301214047,23.647105022242528z" style="fill:rgb(238,238,238); fill-opacity: 0.34"></path><path d="M226.0488415955677,-183.16860525181045L363.31294502947935,-143.20031682339447M196.381396296488,-146.55618984117328L196.381396296488,16.08495168181277M196.381396296488,16.08495168181277L127.1914309702444,29.85092401205164M196.381396296488,16.08495168181277L303.1423656339749,47.17139823724741" style="fill:none;stroke:rgb(0,0,0);stroke-width:1;stroke-linecap:round"></path><path d="M374.8446064460521,63.61539345065849L237.58050301214047,23.647105022242528L237.58050301214047,-185.4629340787395z" style="fill:rgb(238,238,238); fill-opacity: 0.34"></path><path d="M235.03411786177588,-2.5112284958092856L284.58583215952075,18.074199832649352M235.03411786177588,18.438907479248588L284.58583215952075,18.074199832649352M248.7862172596371,22.443216409839483L284.58583215952075,18.074199832649352M248.7862172596371,1.4930804347816031L284.58583215952075,18.074199832649352" style="fill:none;stroke:rgb(0,0,0);stroke-width:1;stroke-linecap:round"></path><path d="M226.04884159556767,-183.16860525181042L226.04884159556767,25.9414338491716L363.3129450294793,-143.20031682339445z" style="fill:rgb(238,238,238); fill-opacity: 0.34"></path><path d="M235.0341223160323,18.43890885560846L235.0341223160323,-2.511231115371504L284.58583746760223,18.074202190652564z" style="fill:rgb(255,187,187); fill-opacity: 0.37"></path><path d="M374.8446064460521,-145.49464565032352L237.58050301214047,-185.4629340787395L226.04884159556767,-183.16860525181042z" style="fill:rgb(238,238,238); fill-opacity: 0.34"></path><path d="M196.381396296488,-146.55618984117328L127.1914309702444,-132.7902175109344M196.381396296488,-146.55618984117328L303.1423656339749,-115.46974328573863" style="fill:none;stroke:rgb(0,0,0);stroke-width:1;stroke-linecap:round"></path><path d="M374.8446064460521,63.61539345065849L363.3129450294793,65.90972227758756L237.58050301214047,23.647105022242528z" style="fill:rgb(238,238,238); fill-opacity: 0.34"></path><path d="M248.78622236964472,22.44321797713969L235.0341223160323,18.43890885560846L284.58583746760223,18.074202190652564z" style="fill:rgb(255,187,187); fill-opacity: 0.37"></path><path d="M196.381396296488,-146.55618984117325L196.381396296488,16.084951681812772L127.1914309702444,-132.79021751093438z" style="fill:rgb(238,238,238); fill-opacity: 0.34"></path><path d="M235.0341223160323,-2.511231115371504L248.78622236964472,1.4930780061597169L284.58583746760223,18.074202190652564z" style="fill:rgb(255,187,187); fill-opacity: 0.37"></path><path d="M235.03412082449705,-2.5112308186170136L235.03412082449705,18.438909152362953M235.03412082449705,18.438909152362953L165.84415549825346,32.20488148260182M235.03412082449705,18.438909152362953L248.7862208781095,22.44321827389418M235.03411786177588,-2.5112284958092856L235.03411786177588,18.438907479248588M235.03411786177588,18.438907479248588L248.7862172596371,22.443216409839483" style="fill:none;stroke:rgb(0,0,0);stroke-width:1;stroke-linecap:round"></path><path d="M248.78622236964472,1.4930780061597169L248.78622236964472,22.44321797713969L284.58583746760223,18.074202190652564z" style="fill:rgb(255,187,187); fill-opacity: 0.37"></path><path d="M196.381396296488,16.084951681812772L127.1914309702444,29.85092401205163L127.1914309702444,-132.79021751093438z" style="fill:rgb(238,238,238); fill-opacity: 0.34"></path><path d="M235.03412082449705,-2.5112308186170136L165.84415549825346,11.254741511621848M235.03412082449705,-2.5112308186170136L248.7862208781095,1.4930783029142103M235.03411786177588,-2.5112284958092856L248.7862172596371,1.4930804347816031" style="fill:none;stroke:rgb(0,0,0);stroke-width:1;stroke-linecap:round"></path><path d="M235.0341223160323,-2.511231115371504L235.0341223160323,18.43890885560846L248.78622236964472,22.44321797713969z" style="fill:rgb(255,187,187); fill-opacity: 0.37"></path><path d="M248.78622087810948,22.443218273894175L235.03412082449702,18.438909152362946L235.03412082449702,-2.511230818617018z" style="fill:rgb(153,221,255); fill-opacity: 0.37"></path><path d="M303.14236563397486,47.17139823724741L196.381396296488,16.084951681812772L196.381396296488,-146.55618984117325z" style="fill:rgb(238,238,238); fill-opacity: 0.34"></path><path d="M127.1914309702444,-132.7902175109344L127.1914309702444,29.85092401205164M127.1914309702444,29.85092401205164L233.9524003077313,60.93737056748627" style="fill:none;stroke:rgb(0,0,0);stroke-width:1;stroke-linecap:round"></path><path d="M235.0341223160323,-2.511231115371504L248.78622236964472,22.44321797713969L248.78622236964472,1.4930780061597169z" style="fill:rgb(255,187,187); fill-opacity: 0.37"></path><path d="M248.78622087810948,1.4930783029142027L248.78622087810948,22.443218273894175L235.03412082449702,-2.511230818617018z" style="fill:rgb(153,221,255); fill-opacity: 0.37"></path><path d="M179.59625555186594,36.20919060413304L248.7862208781095,22.44321827389418M248.7862208781095,1.4930783029142103L248.7862208781095,22.44321827389418M248.7862172596371,22.443216409839483L248.7862172596371,1.4930804347816031" style="fill:none;stroke:rgb(0,0,0);stroke-width:1;stroke-linecap:round"></path><path d="M226.04884159556767,25.9414338491716L363.3129450294793,65.90972227758756L363.3129450294793,-143.20031682339445z" style="fill:rgb(238,238,238); fill-opacity: 0.34"></path><path d="M179.59625555186594,15.259050633153073L248.7862208781095,1.4930783029142103" style="fill:none;stroke:rgb(0,0,0);stroke-width:1;stroke-linecap:round"></path><path d="M235.03412082449702,-2.511230818617018L235.03412082449702,18.438909152362946L165.84415549825343,11.254741511621843z" style="fill:rgb(153,221,255); fill-opacity: 0.37"></path><path d="M374.8446064460521,-145.49464565032352L374.8446064460521,63.61539345065849L237.58050301214047,-185.4629340787395z" style="fill:rgb(238,238,238); fill-opacity: 0.34"></path><path d="M248.78622087810948,1.4930783029142027L235.03412082449702,-2.511230818617018L165.84415549825343,11.254741511621843zM248.78622087810948,22.443218273894175L179.59625555186594,36.209190604133035L235.03412082449702,18.438909152362946z" style="fill:rgb(153,221,255); fill-opacity: 0.37"></path><path d="M233.9524003077313,60.93737056748627L127.1914309702444,29.85092401205163L196.381396296488,16.084951681812772z" style="fill:rgb(238,238,238); fill-opacity: 0.34"></path><path d="M179.59625555186594,36.209190604133035L248.78622087810948,22.443218273894175L248.78622087810948,1.4930783029142027zM235.03412082449702,18.438909152362946L165.84415549825343,32.204881482601806L165.84415549825343,11.254741511621843zM179.59625555186594,36.209190604133035L165.84415549825343,32.204881482601806L235.03412082449702,18.438909152362946z" style="fill:rgb(153,221,255); fill-opacity: 0.37"></path><path d="M363.31294502947935,65.90972227758756L374.8446064460521,63.61539345065849M374.8446064460521,-145.49464565032355L374.8446064460521,63.61539345065849M127.1914309702444,-132.7902175109344L233.9524003077313,-101.70377095549976" style="fill:none;stroke:rgb(0,0,0);stroke-width:1;stroke-linecap:round"></path><path d="M363.3129450294793,-143.20031682339445L374.8446064460521,-145.49464565032352L226.04884159556767,-183.16860525181042z" style="fill:rgb(238,238,238); fill-opacity: 0.34"></path><path d="M179.59625555186594,15.259050633153066L248.78622087810948,1.4930783029142027L165.84415549825343,11.254741511621843z" style="fill:rgb(153,221,255); fill-opacity: 0.37"></path><path d="M303.14236563397486,-115.46974328573863L196.381396296488,-146.55618984117325L127.1914309702444,-132.79021751093438z" style="fill:rgb(238,238,238); fill-opacity: 0.34"></path><path d="M363.31294502947935,-143.20031682339447L363.31294502947935,65.90972227758756" style="fill:none;stroke:rgb(0,0,0);stroke-width:1;stroke-linecap:round"></path><path d="M303.14236563397486,47.17139823724741L233.9524003077313,60.93737056748627L196.381396296488,16.084951681812772z" style="fill:rgb(238,238,238); fill-opacity: 0.34"></path><path d="M165.84415549825346,11.254741511621848L165.84415549825346,32.20488148260182M165.84415549825346,32.20488148260182L179.59625555186594,36.20919060413304" style="fill:none;stroke:rgb(0,0,0);stroke-width:1;stroke-linecap:round"></path><path d="M179.59625555186594,15.259050633153066L179.59625555186594,36.209190604133035L248.78622087810948,1.4930783029142027z" style="fill:rgb(153,221,255); fill-opacity: 0.37"></path><path d="M165.84415549825346,11.254741511621848L179.59625555186594,15.259050633153073" style="fill:none;stroke:rgb(0,0,0);stroke-width:1;stroke-linecap:round"></path><path d="M303.14236563397486,-115.46974328573863L303.14236563397486,47.17139823724741L196.381396296488,-146.55618984117325z" style="fill:rgb(238,238,238); fill-opacity: 0.34"></path><path d="M165.84415549825343,11.254741511621843L165.84415549825343,32.204881482601806L179.59625555186594,15.259050633153066z" style="fill:rgb(153,221,255); fill-opacity: 0.37"></path><path d="M363.3129450294793,65.90972227758756L374.8446064460521,63.61539345065849L374.8446064460521,-145.49464565032352z" style="fill:rgb(238,238,238); fill-opacity: 0.34"></path><path d="M97.52398497292776,-96.17780196137664L97.52398497292776,19.994441983613385M97.52398497292776,19.994441983613385L16.80235664351484,36.054743456449124M97.52398497292776,19.994441983613385L173.78182021398985,42.19904666606671" style="fill:none;stroke:rgb(0,0,0);stroke-width:1;stroke-linecap:round"></path><path d="M165.84415549825343,32.204881482601806L179.59625555186594,36.209190604133035L179.59625555186594,15.259050633153066z" style="fill:rgb(153,221,255); fill-opacity: 0.37"></path><path d="M179.59625555186594,15.259050633153073L179.59625555186594,36.20919060413304" style="fill:none;stroke:rgb(0,0,0);stroke-width:1;stroke-linecap:round"></path><path d="M127.1914309702444,-132.79021751093438L127.1914309702444,29.85092401205163L233.9524003077313,-101.70377095549976z" style="fill:rgb(238,238,238); fill-opacity: 0.34"></path><path d="M233.9524003077313,60.93737056748627L303.1423656339749,47.17139823724741M303.1423656339749,-115.46974328573863L303.1423656339749,47.17139823724741" style="fill:none;stroke:rgb(0,0,0);stroke-width:1;stroke-linecap:round"></path><path d="M363.3129450294793,-143.20031682339445L363.3129450294793,65.90972227758756L374.8446064460521,-145.49464565032352z" style="fill:rgb(238,238,238); fill-opacity: 0.34"></path><path d="M97.52398497292776,-96.17780196137664L16.80235664351484,-80.11750048854091M97.52398497292776,-96.17780196137664L173.78182021398985,-73.97319727892332M363.31294502947935,-143.20031682339447L374.8446064460521,-145.49464565032355" style="fill:none;stroke:rgb(0,0,0);stroke-width:1;stroke-linecap:round"></path><path d="M127.1914309702444,29.85092401205163L233.9524003077313,60.93737056748627L233.9524003077313,-101.70377095549976zM173.78182021398985,42.19904666606671L97.52398497292776,19.994441983613388L97.52398497292776,-96.17780196137664zM97.52398497292776,-96.17780196137664L97.52398497292776,19.994441983613388L16.80235664351483,-80.11750048854091zM233.9524003077313,60.93737056748627L303.14236563397486,47.17139823724741L303.14236563397486,-115.46974328573863z" style="fill:rgb(238,238,238); fill-opacity: 0.34"></path><path d="M150.0651709227177,8.936722005875955L210.3755589394634,31.8382328969477M150.0651709227177,29.88686197685592L210.3755589394634,31.8382328969477M163.81726966482773,33.89117071650647L210.3755589394634,31.8382328969477M163.81726966482773,12.941030745526506L210.3755589394634,31.8382328969477" style="fill:none;stroke:rgb(0,0,0);stroke-width:1;stroke-linecap:round"></path><path d="M233.9524003077313,-101.70377095549976L303.14236563397486,-115.46974328573863L127.1914309702444,-132.79021751093438z" style="fill:rgb(238,238,238); fill-opacity: 0.34"></path><path d="M233.9524003077313,-101.70377095549976L303.1423656339749,-115.46974328573863" style="fill:none;stroke:rgb(0,0,0);stroke-width:1;stroke-linecap:round"></path><path d="M97.52398497292776,19.994441983613388L16.80235664351483,36.054743456449124L16.80235664351483,-80.11750048854091z" style="fill:rgb(238,238,238); fill-opacity: 0.34"></path><path d="M150.06517276244443,29.886861813478642L150.06517276244443,8.93672184249868L210.3755614662104,31.838230666079074zM163.81727281605689,33.89117093500987L150.06517276244443,29.886861813478642L210.3755614662104,31.838230666079074z" style="fill:rgb(255,187,187); fill-opacity: 0.37"></path><path d="M150.06517208005104,8.936721978267041L150.06517208005104,29.88686194924701M150.06517208005104,29.88686194924701L69.34354375063809,45.947163422082745M150.06517208005104,29.88686194924701L163.8172721336635,33.891171070778235M150.0651709227177,8.936722005875955L150.0651709227177,29.88686197685592M150.0651709227177,29.88686197685592L163.81726966482773,33.89117071650647M16.80235664351484,-80.11750048854091L16.80235664351484,36.054743456449124M16.80235664351484,36.054743456449124L93.06019188457691,58.25934813890244" style="fill:none;stroke:rgb(0,0,0);stroke-width:1;stroke-linecap:round"></path><path d="M150.06517276244443,8.93672184249868L163.81727281605689,12.941030964029906L210.3755614662104,31.838230666079074z" style="fill:rgb(255,187,187); fill-opacity: 0.37"></path><path d="M233.9524003077313,-101.70377095549976L233.9524003077313,60.93737056748627M150.06517208005104,8.936721978267041L69.34354375063809,24.997023451102784M150.06517208005104,8.936721978267041L163.8172721336635,12.941031099798268M150.0651709227177,8.936722005875955L163.81726966482773,12.941030745526506" style="fill:none;stroke:rgb(0,0,0);stroke-width:1;stroke-linecap:round"></path><path d="M163.81727281605689,12.941030964029906L163.81727281605689,33.89117093500987L210.3755614662104,31.838230666079074zM150.06517276244443,8.93672184249868L150.06517276244443,29.886861813478642L163.81727281605689,33.89117093500987z" style="fill:rgb(255,187,187); fill-opacity: 0.37"></path><path d="M163.8172721336635,33.89117107077824L150.06517208005104,29.88686194924701L150.06517208005104,8.936721978267045z" style="fill:rgb(153,221,255); fill-opacity: 0.37"></path><path d="M93.06019188457691,58.259348138902446L16.80235664351483,36.054743456449124L97.52398497292776,19.994441983613388zM233.9524003077313,-101.70377095549976L233.9524003077313,60.93737056748627L303.14236563397486,-115.46974328573863z" style="fill:rgb(238,238,238); fill-opacity: 0.34"></path><path d="M150.06517276244443,8.93672184249868L163.81727281605689,33.89117093500987L163.81727281605689,12.941030964029906z" style="fill:rgb(255,187,187); fill-opacity: 0.37"></path><path d="M163.8172721336635,12.941031099798272L163.8172721336635,33.89117107077824L150.06517208005104,8.936721978267045z" style="fill:rgb(153,221,255); fill-opacity: 0.37"></path><path d="M173.78182021398985,-73.97319727892332L173.78182021398985,42.19904666606671L97.52398497292776,-96.17780196137664z" style="fill:rgb(238,238,238); fill-opacity: 0.34"></path><path d="M163.81726966482773,33.89117071650647L163.81726966482773,12.941030745526506M83.09564380425056,49.951472543613974L163.8172721336635,33.891171070778235M163.8172721336635,12.941031099798268L163.8172721336635,33.891171070778235" style="fill:none;stroke:rgb(0,0,0);stroke-width:1;stroke-linecap:round"></path><path d="M173.78182021398985,-73.97319727892332L97.52398497292776,-96.17780196137664L16.80235664351483,-80.11750048854091zM173.78182021398985,42.19904666606671L93.06019188457691,58.259348138902446L97.52398497292776,19.994441983613388z" style="fill:rgb(238,238,238); fill-opacity: 0.34"></path><path d="M83.09564380425056,29.001332572634006L163.8172721336635,12.941031099798268" style="fill:none;stroke:rgb(0,0,0);stroke-width:1;stroke-linecap:round"></path><path d="M150.06517208005104,8.936721978267045L150.06517208005104,29.88686194924701L69.34354375063809,24.997023451102788z" style="fill:rgb(153,221,255); fill-opacity: 0.37"></path><path d="M93.06019188457691,58.25934813890244L173.78182021398985,42.19904666606671M173.78182021398985,-73.97319727892332L173.78182021398985,42.19904666606671M16.80235664351484,-80.11750048854091L93.06019188457691,-57.91289580608758" style="fill:none;stroke:rgb(0,0,0);stroke-width:1;stroke-linecap:round"></path><path d="M163.8172721336635,12.941031099798272L150.06517208005104,8.936721978267045L69.34354375063809,24.997023451102788zM163.8172721336635,33.89117107077824L83.09564380425057,49.951472543613974L150.06517208005104,29.88686194924701zM83.09564380425057,49.951472543613974L163.8172721336635,33.89117107077824L163.8172721336635,12.941031099798272zM150.06517208005104,29.88686194924701L69.34354375063809,45.947163422082745L69.34354375063809,24.997023451102788zM83.09564380425057,49.951472543613974L69.34354375063809,45.947163422082745L150.06517208005104,29.88686194924701z" style="fill:rgb(153,221,255); fill-opacity: 0.37"></path><path d="M16.80235664351483,-80.11750048854091L16.80235664351483,36.054743456449124L93.06019188457691,-57.91289580608758z" style="fill:rgb(238,238,238); fill-opacity: 0.34"></path><path d="M93.06019188457691,-57.91289580608758L173.78182021398985,-73.97319727892332" style="fill:none;stroke:rgb(0,0,0);stroke-width:1;stroke-linecap:round"></path><path d="M93.06019188457691,58.259348138902446L173.78182021398985,42.19904666606671L173.78182021398985,-73.97319727892332z" style="fill:rgb(238,238,238); fill-opacity: 0.34"></path><path d="M83.09564380425057,29.001332572634016L163.8172721336635,12.941031099798272L69.34354375063809,24.997023451102788z" style="fill:rgb(153,221,255); fill-opacity: 0.37"></path><path d="M-12.865087735518117,-43.505085260955376L-12.865087735518117,26.19826110603864M-12.865087735518117,26.19826110603864L-105.11837906810041,44.552891721471255M-12.865087735518117,26.19826110603864L32.889613409119114,39.521023915510625" style="fill:none;stroke:rgb(0,0,0);stroke-width:1;stroke-linecap:round"></path><path d="M83.09564380425057,29.001332572634016L83.09564380425057,49.951472543613974L163.8172721336635,12.941031099798272z" style="fill:rgb(153,221,255); fill-opacity: 0.37"></path><path d="M69.34354375063809,24.997023451102784L69.34354375063809,45.947163422082745M69.34354375063809,45.947163422082745L83.09564380425056,49.951472543613974" style="fill:none;stroke:rgb(0,0,0);stroke-width:1;stroke-linecap:round"></path><path d="M93.06019188457691,-57.91289580608758L173.78182021398985,-73.97319727892332L16.80235664351483,-80.11750048854091z" style="fill:rgb(238,238,238); fill-opacity: 0.34"></path><path d="M69.34354375063809,24.997023451102784L83.09564380425056,29.001332572634006" style="fill:none;stroke:rgb(0,0,0);stroke-width:1;stroke-linecap:round"></path><path d="M16.80235664351483,36.054743456449124L93.06019188457691,58.259348138902446L93.06019188457691,-57.91289580608758z" style="fill:rgb(238,238,238); fill-opacity: 0.34"></path><path d="M69.34354375063809,24.997023451102788L69.34354375063809,45.947163422082745L83.09564380425057,29.001332572634016z" style="fill:rgb(153,221,255); fill-opacity: 0.37"></path><path d="M12.242085165983394,-0.19517879112882147L70.10772753623107,12.861051406803655M12.242085165983394,20.754961429596275L70.10772753623107,12.861051406803655M25.9941858753471,24.759270742067837L70.10772753623107,12.861051406803655M25.9941858753471,3.8091305213427415L70.10772753623107,12.861051406803655" style="fill:none;stroke:rgb(0,0,0);stroke-width:1;stroke-linecap:round"></path><path d="M69.34354375063809,45.947163422082745L83.09564380425057,49.951472543613974L83.09564380425057,29.001332572634016z" style="fill:rgb(153,221,255); fill-opacity: 0.37"></path><path d="M-12.865087735518117,-43.505085260955376L-105.11837906810041,-25.150454645522757M-12.865087735518117,-43.505085260955376L32.889613409119114,-30.182322451483387M83.09564380425056,29.001332572634006L83.09564380425056,49.951472543613974" style="fill:none;stroke:rgb(0,0,0);stroke-width:1;stroke-linecap:round"></path><path d="M32.88961340911912,39.521023915510625L-12.865087735518113,26.19826110603864L-12.865087735518113,-43.505085260955376zM93.06019188457691,-57.91289580608758L93.06019188457691,58.259348138902446L173.78182021398985,-73.97319727892332z" style="fill:rgb(238,238,238); fill-opacity: 0.34"></path><path d="M12.242085110326142,20.754961144488473L12.242085110326142,-0.19517882649149237L70.10772762678629,12.861051239730347z" style="fill:rgb(255,187,187); fill-opacity: 0.37"></path><path d="M93.06019188457691,-57.91289580608758L93.06019188457691,58.25934813890244" style="fill:none;stroke:rgb(0,0,0);stroke-width:1;stroke-linecap:round"></path><path d="M25.99418516393862,24.759270266019698L12.242085110326142,20.754961144488473L70.10772762678629,12.861051239730347z" style="fill:rgb(255,187,187); fill-opacity: 0.37"></path><path d="M12.242085165983394,-0.19517879112882147L12.242085165983394,20.754961429596275M12.242085165983394,20.754961429596275L25.9941858753471,24.759270742067837M12.242085237074566,-0.1951788517092417L12.242085237074566,20.754961119270725M12.242085237074566,20.754961119270725L-80.01120609550772,39.10959173470334M12.242085237074566,20.754961119270725L25.994185290687046,24.75927024080195" style="fill:none;stroke:rgb(0,0,0);stroke-width:1;stroke-linecap:round"></path><path d="M12.242085110326142,-0.19517882649149237L25.99418516393862,3.8091302950397328L70.10772762678629,12.861051239730347z" style="fill:rgb(255,187,187); fill-opacity: 0.37"></path><path d="M-12.865087735518113,-43.505085260955376L-12.865087735518113,26.19826110603864L-105.1183790681004,-25.150454645522757z" style="fill:rgb(238,238,238); fill-opacity: 0.34"></path><path d="M12.242085237074566,-0.1951788517092417L-80.01120609550772,18.15945176372338M12.242085237074566,-0.1951788517092417L25.994185290687046,3.809130269821982M12.242085165983394,-0.19517879112882147L25.9941858753471,3.8091305213427415" style="fill:none;stroke:rgb(0,0,0);stroke-width:1;stroke-linecap:round"></path><path d="M25.99418516393862,3.8091302950397328L25.99418516393862,24.759270266019698L70.10772762678629,12.861051239730347z" style="fill:rgb(255,187,187); fill-opacity: 0.37"></path><path d="M25.994185290687046,24.759270240801946L12.242085237074567,20.75496111927072L12.242085237074567,-0.19517885170924362z" style="fill:rgb(153,221,255); fill-opacity: 0.37"></path><path d="M12.242085110326142,-0.19517882649149237L12.242085110326142,20.754961144488473L25.99418516393862,24.759270266019698z" style="fill:rgb(255,187,187); fill-opacity: 0.37"></path><path d="M25.994185290687046,3.8091302698219818L25.994185290687046,24.759270240801946L12.242085237074567,-0.19517885170924362z" style="fill:rgb(153,221,255); fill-opacity: 0.37"></path><path d="M12.242085110326142,-0.19517882649149237L25.99418516393862,24.759270266019698L25.99418516393862,3.8091302950397328z" style="fill:rgb(255,187,187); fill-opacity: 0.37"></path><path d="M32.88961340911912,-30.182322451483387L32.88961340911912,39.521023915510625L-12.865087735518113,-43.505085260955376z" style="fill:rgb(238,238,238); fill-opacity: 0.34"></path><path d="M-66.25910604189524,43.113900856234565L25.994185290687046,24.75927024080195M25.994185290687046,3.809130269821982L25.994185290687046,24.75927024080195M25.9941858753471,24.759270742067837L25.9941858753471,3.8091305213427415M-59.363677923463165,57.87565453094325L32.889613409119114,39.521023915510625M32.889613409119114,-30.182322451483387L32.889613409119114,39.521023915510625M-66.25910604189524,22.1637608852546L25.994185290687046,3.809130269821982" style="fill:none;stroke:rgb(0,0,0);stroke-width:1;stroke-linecap:round"></path><path d="M-12.865087735518113,26.19826110603864L-105.1183790681004,44.552891721471255L-105.1183790681004,-25.150454645522757zM32.88961340911912,-30.182322451483387L-12.865087735518113,-43.505085260955376L-105.1183790681004,-25.150454645522757zM32.88961340911912,39.521023915510625L-59.36367792346316,57.87565453094325L-12.865087735518113,26.19826110603864z" style="fill:rgb(238,238,238); fill-opacity: 0.34"></path><path d="M12.242085237074567,-0.19517885170924362L12.242085237074567,20.75496111927072L-80.0112060955077,18.15945176372338z" style="fill:rgb(153,221,255); fill-opacity: 0.37"></path><path d="M-59.36367792346316,57.87565453094325L-105.1183790681004,44.552891721471255L-12.865087735518113,26.19826110603864z" style="fill:rgb(238,238,238); fill-opacity: 0.34"></path><path d="M25.994185290687046,3.8091302698219818L12.242085237074567,-0.19517885170924362L-80.0112060955077,18.15945176372338zM25.994185290687046,24.759270240801946L-66.25910604189524,43.113900856234565L12.242085237074567,20.75496111927072z" style="fill:rgb(153,221,255); fill-opacity: 0.37"></path><path d="M-59.363677923463165,-11.827691836050764L32.889613409119114,-30.182322451483387M-105.11837906810041,-25.150454645522757L-105.11837906810041,44.552891721471255M-105.11837906810041,44.552891721471255L-59.363677923463165,57.87565453094325" style="fill:none;stroke:rgb(0,0,0);stroke-width:1;stroke-linecap:round"></path><path d="M-66.25910604189524,43.113900856234565L25.994185290687046,24.759270240801946L25.994185290687046,3.8091302698219818zM12.242085237074567,20.75496111927072L-80.0112060955077,39.109591734703336L-80.0112060955077,18.15945176372338z" style="fill:rgb(153,221,255); fill-opacity: 0.37"></path><path d="M-59.36367792346316,57.87565453094325L32.88961340911912,39.521023915510625L32.88961340911912,-30.182322451483387z" style="fill:rgb(238,238,238); fill-opacity: 0.34"></path><path d="M-66.25910604189524,43.113900856234565L-80.0112060955077,39.109591734703336L12.242085237074567,20.75496111927072z" style="fill:rgb(153,221,255); fill-opacity: 0.37"></path><path d="M-105.11837906810041,-25.150454645522757L-59.363677923463165,-11.827691836050764" style="fill:none;stroke:rgb(0,0,0);stroke-width:1;stroke-linecap:round"></path><path d="M-66.25910604189524,22.1637608852546L25.994185290687046,3.8091302698219818L-80.0112060955077,18.15945176372338zM-66.25910604189524,22.1637608852546L-66.25910604189524,43.113900856234565L25.994185290687046,3.8091302698219818z" style="fill:rgb(153,221,255); fill-opacity: 0.37"></path><path d="M-131.25201085205128,18.781650939825024L-90.39131155879842,4.294951552405246M-131.25201085205128,22.971678934021018L-90.39131155879842,4.294951552405246M-128.50159084132878,23.772540758327263L-90.39131155879842,4.294951552405246M-128.50159084132878,19.58251276413127L-90.39131155879842,4.294951552405246" style="fill:none;stroke:rgb(0,0,0);stroke-width:1;stroke-linecap:round"></path><path d="M-59.36367792346316,-11.827691836050766L32.88961340911912,-30.182322451483387L-105.1183790681004,-25.150454645522757zM-105.1183790681004,-25.150454645522757L-105.1183790681004,44.552891721471255L-59.36367792346316,-11.827691836050766z" style="fill:rgb(238,238,238); fill-opacity: 0.34"></path><path d="M-80.01120609550772,18.15945176372338L-80.01120609550772,39.10959173470334M-80.01120609550772,39.10959173470334L-66.25910604189524,43.113900856234565M-80.01120609550772,18.15945176372338L-66.25910604189524,22.1637608852546" style="fill:none;stroke:rgb(0,0,0);stroke-width:1;stroke-linecap:round"></path><path d="M-59.36367792346316,-11.827691836050766L-59.36367792346316,57.87565453094325L32.88961340911912,-30.182322451483387z" style="fill:rgb(238,238,238); fill-opacity: 0.34"></path><path d="M-80.0112060955077,18.15945176372338L-80.0112060955077,39.109591734703336L-66.25910604189524,22.1637608852546z" style="fill:rgb(153,221,255); fill-opacity: 0.37"></path><path d="M-105.1183790681004,44.552891721471255L-59.36367792346316,57.87565453094325L-59.36367792346316,-11.827691836050766z" style="fill:rgb(238,238,238); fill-opacity: 0.34"></path><path d="M-80.0112060955077,39.109591734703336L-66.25910604189524,43.113900856234565L-66.25910604189524,22.1637608852546z" style="fill:rgb(153,221,255); fill-opacity: 0.37"></path><path d="M-66.25910604189524,22.1637608852546L-66.25910604189524,43.113900856234565M-59.363677923463165,-11.827691836050764L-59.363677923463165,57.87565453094325" style="fill:none;stroke:rgb(0,0,0);stroke-width:1;stroke-linecap:round"></path><path d="M-131.25200990809478,22.971678732474455L-131.25200990809478,18.78165073827846L-90.39131035533282,4.29495093296504zM-128.5015898973723,23.772540556780697L-131.25200990809478,22.971678732474455L-90.39131035533282,4.29495093296504zM-131.25200990809478,18.78165073827846L-128.5015898973723,19.582512562584704L-90.39131035533282,4.29495093296504zM-128.5015898973723,19.582512562584704L-128.5015898973723,23.772540556780697L-90.39131035533282,4.29495093296504z" style="fill:rgb(255,187,187); fill-opacity: 0.37"></path><path d="M-134.78582182884966,11.461960260090523L-134.78582182884966,34.69640904908853M-134.78582182884966,34.69640904908853L-238.57077616460128,55.34536880711803M-134.78582182884966,34.69640904908853L-119.53425478063727,39.13732998557919M-134.78582182884966,11.461960260090523L-238.57077616460128,32.11092001812003M-134.78582182884966,11.461960260090523L-119.53425478063727,15.902881196581184M-131.25200897220455,18.78165055207458L-131.25200897220455,22.971678546270574M-131.25200897220455,22.971678546270574L-235.03696330795617,43.62063830430007M-131.25200897220455,22.971678546270574L-128.50158896148207,23.772540370576824M-131.25201085205128,18.781650939825024L-131.25201085205128,22.971678934021018M-131.25201085205128,22.971678934021018L-128.50159084132878,23.772540758327263" style="fill:none;stroke:rgb(0,0,0);stroke-width:1;stroke-linecap:round"></path><path d="M-119.53425478063727,39.13732998557919L-134.78582182884966,34.69640904908854L-134.78582182884966,11.461960260090528z" style="fill:rgb(238,238,238); fill-opacity: 0.34"></path><path d="M-131.25200897220455,18.78165055207458L-235.03696330795617,39.430610310104086M-131.25200897220455,18.78165055207458L-128.50158896148207,19.582512376380826M-131.25201085205128,18.781650939825024L-128.50159084132878,19.58251276413127" style="fill:none;stroke:rgb(0,0,0);stroke-width:1;stroke-linecap:round"></path><path d="M-128.50158896148204,23.772540370576827L-131.25200897220455,22.971678546270585L-131.25200897220455,18.78165055207459z" style="fill:rgb(153,221,255); fill-opacity: 0.37"></path><path d="M-131.25200990809478,18.78165073827846L-131.25200990809478,22.971678732474455L-128.5015898973723,23.772540556780697z" style="fill:rgb(255,187,187); fill-opacity: 0.37"></path><path d="M-128.50158896148204,19.582512376380834L-128.50158896148204,23.772540370576827L-131.25200897220455,18.78165055207459z" style="fill:rgb(153,221,255); fill-opacity: 0.37"></path><path d="M-131.25200990809478,18.78165073827846L-128.5015898973723,23.772540556780697L-128.5015898973723,19.582512562584704z" style="fill:rgb(255,187,187); fill-opacity: 0.37"></path><path d="M-232.2865432972337,44.42150012860632L-128.50158896148207,23.772540370576824M-128.50158896148207,19.582512376380826L-128.50158896148207,23.772540370576824M-128.50159084132878,23.772540758327263L-128.50159084132878,19.58251276413127M-232.2865432972337,40.231472134410325L-128.50158896148207,19.582512376380826" style="fill:none;stroke:rgb(0,0,0);stroke-width:1;stroke-linecap:round"></path><path d="M-119.53425478063727,15.902881196581191L-119.53425478063727,39.13732998557919L-134.78582182884966,11.461960260090528z" style="fill:rgb(238,238,238); fill-opacity: 0.34"></path><path d="M-223.3192091163889,59.7862897436087L-119.53425478063727,39.13732998557919M-119.53425478063727,15.902881196581184L-119.53425478063727,39.13732998557919M-223.3192091163889,36.55184095461068L-119.53425478063727,15.902881196581184" style="fill:none;stroke:rgb(0,0,0);stroke-width:1;stroke-linecap:round"></path><path d="M-134.78582182884966,11.461960260090528L-134.78582182884966,34.69640904908854L-238.5707761646013,32.11092001812003z" style="fill:rgb(238,238,238); fill-opacity: 0.34"></path><path d="M-131.25200897220455,18.78165055207459L-131.25200897220455,22.971678546270585L-235.0369633079562,39.430610310104086zM-128.50158896148204,19.582512376380834L-131.25200897220455,18.78165055207459L-235.0369633079562,39.430610310104086zM-128.50158896148204,23.772540370576827L-232.2865432972337,44.421500128606326L-131.25200897220455,22.971678546270585zM-232.2865432972337,44.421500128606326L-128.50158896148204,23.772540370576827L-128.50158896148204,19.582512376380834z" style="fill:rgb(153,221,255); fill-opacity: 0.37"></path><path d="M-119.53425478063727,15.902881196581191L-134.78582182884966,11.461960260090528L-238.5707761646013,32.11092001812003zM-119.53425478063727,39.13732998557919L-223.31920911638892,59.7862897436087L-134.78582182884966,34.69640904908854zM-223.31920911638892,59.7862897436087L-119.53425478063727,39.13732998557919L-119.53425478063727,15.902881196581191zM-134.78582182884966,34.69640904908854L-238.5707761646013,55.34536880711803L-238.5707761646013,32.11092001812003zM-223.31920911638892,59.7862897436087L-238.5707761646013,55.34536880711803L-134.78582182884966,34.69640904908854z" style="fill:rgb(238,238,238); fill-opacity: 0.34"></path><path d="M-131.25200897220455,22.971678546270585L-235.0369633079562,43.62063830430009L-235.0369633079562,39.430610310104086zM-232.2865432972337,44.421500128606326L-235.0369633079562,43.62063830430009L-131.25200897220455,22.971678546270585zM-232.2865432972337,40.23147213441033L-128.50158896148204,19.582512376380834L-235.0369633079562,39.430610310104086zM-232.2865432972337,40.23147213441033L-232.2865432972337,44.421500128606326L-128.50158896148204,19.582512376380834z" style="fill:rgb(153,221,255); fill-opacity: 0.37"></path><path d="M-223.31920911638892,36.55184095461069L-119.53425478063727,15.902881196581191L-238.5707761646013,32.11092001812003zM-223.31920911638892,36.55184095461069L-223.31920911638892,59.7862897436087L-119.53425478063727,15.902881196581191z" style="fill:rgb(238,238,238); fill-opacity: 0.34"></path><path d="M-238.57077616460128,32.11092001812003L-238.57077616460128,55.34536880711803M-238.57077616460128,55.34536880711803L-223.3192091163889,59.7862897436087M-238.57077616460128,32.11092001812003L-223.3192091163889,36.55184095461068M-235.03696330795617,39.430610310104086L-235.03696330795617,43.62063830430007M-235.03696330795617,43.62063830430007L-232.2865432972337,44.42150012860632M-235.03696330795617,39.430610310104086L-232.2865432972337,40.231472134410325" style="fill:none;stroke:rgb(0,0,0);stroke-width:1;stroke-linecap:round"></path><path d="M-235.0369633079562,39.430610310104086L-235.0369633079562,43.62063830430009L-232.2865432972337,40.23147213441033z" style="fill:rgb(153,221,255); fill-opacity: 0.37"></path><path d="M-238.5707761646013,32.11092001812003L-238.5707761646013,55.34536880711803L-223.31920911638892,36.55184095461069z" style="fill:rgb(238,238,238); fill-opacity: 0.34"></path><path d="M-235.0369633079562,43.62063830430009L-232.2865432972337,44.421500128606326L-232.2865432972337,40.23147213441033z" style="fill:rgb(153,221,255); fill-opacity: 0.37"></path><path d="M-232.2865432972337,40.231472134410325L-232.2865432972337,44.42150012860632" style="fill:none;stroke:rgb(0,0,0);stroke-width:1;stroke-linecap:round"></path><path d="M-238.5707761646013,55.34536880711803L-223.31920911638892,59.7862897436087L-223.31920911638892,36.55184095461069z" style="fill:rgb(238,238,238); fill-opacity: 0.34"></path><path d="M-223.3192091163889,36.55184095461068L-223.3192091163889,59.7862897436087" style="fill:none;stroke:rgb(0,0,0);stroke-width:1;stroke-linecap:round"></path></svg>